<svg id="visual" viewBox="0 0 1920 1350" width="1920" height="1350" xmlns="http://www.w3.org/2000/svg" xmlns:xlink="http://www.w3.org/1999/xlink" version="1.1"><rect x="0" y="0" width="1920" height="1350" fill="#ffffff"></rect><path d="M0 300L64 309.8C128 319.7 256 339.3 384 402C512 464.7 640 570.3 768 558C896 545.7 1024 415.3 1152 352.3C1280 289.3 1408 293.7 1536 322C1664 350.3 1792 402.7 1856 428.8L1920 455L1920 0L1856 0C1792 0 1664 0 1536 0C1408 0 1280 0 1152 0C1024 0 896 0 768 0C640 0 512 0 384 0C256 0 128 0 64 0L0 0Z" fill="#ffb500" stroke-linecap="round" stroke-linejoin="miter"></path></svg>